<svg xmlns="http://www.w3.org/2000/svg" width="2200" height="1560" viewBox="0 0 2200 1560">
<rect width="2200" height="1560" fill="white"/>
<defs><marker id="arrow" markerWidth="12" markerHeight="12" refX="10" refY="6" orient="auto" markerUnits="strokeWidth"><path d="M0 0 L12 6 L0 12 Z" fill="#374151"/></marker></defs>
<rect x="560" y="45" width="1000" height="110" rx="14" fill="#eef2f6" stroke="#374151" stroke-width="4"/>
<text x="1060.0" y="72.0" dominant-baseline="middle" text-anchor="middle" font-family="Arial,sans-serif" font-size="43" fill="#111827">Input classic PCAP</text>
<text x="1060.0" y="128.0" dominant-baseline="middle" text-anchor="middle" font-family="Arial,sans-serif" font-size="43" fill="#111827">Original captured packet records</text>
<path d="M 1060,155 L 1060,210" fill="none" stroke="#374151" stroke-width="5" marker-end="url(#arrow)"/>
<rect x="560" y="210" width="1000" height="110" rx="14" fill="#eef2f6" stroke="#374151" stroke-width="4"/>
<text x="1060.0" y="237.0" dominant-baseline="middle" text-anchor="middle" font-family="Arial,sans-serif" font-size="43" fill="#111827">Validate and parse packets</text>
<text x="1060.0" y="293.0" dominant-baseline="middle" text-anchor="middle" font-family="Arial,sans-serif" font-size="43" fill="#111827">Preserve bytes and timestamps</text>
<path d="M 1060,320 L 1060,375" fill="none" stroke="#374151" stroke-width="5" marker-end="url(#arrow)"/>
<rect x="560" y="375" width="1000" height="110" rx="14" fill="#eef2f6" stroke="#374151" stroke-width="4"/>
<text x="1060.0" y="402.0" dominant-baseline="middle" text-anchor="middle" font-family="Arial,sans-serif" font-size="43" fill="#111827">Extract observable features</text>
<text x="1060.0" y="458.0" dominant-baseline="middle" text-anchor="middle" font-family="Arial,sans-serif" font-size="43" fill="#111827">Flows and supported protocol sequences</text>
<path d="M 1060,485 L 1060,550" fill="none" stroke="#374151" stroke-width="5"/>
<path d="M 280,550 L 1750,550" fill="none" stroke="#374151" stroke-width="5"/>
<path d="M 280,550 L 280,605" fill="none" stroke="#374151" stroke-width="5" marker-end="url(#arrow)"/>
<path d="M 770,550 L 770,605" fill="none" stroke="#374151" stroke-width="5" marker-end="url(#arrow)"/>
<path d="M 1260,550 L 1260,605" fill="none" stroke="#374151" stroke-width="5" marker-end="url(#arrow)"/>
<path d="M 1750,550 L 1750,605" fill="none" stroke="#374151" stroke-width="5" marker-end="url(#arrow)"/>
<rect x="75" y="605" width="410" height="130" rx="14" fill="#e5edf4" stroke="#374151" stroke-width="4"/>
<text x="280.0" y="644.5" dominant-baseline="middle" text-anchor="middle" font-family="Arial,sans-serif" font-size="38" fill="#111827">Random</text>
<text x="280.0" y="695.5" dominant-baseline="middle" text-anchor="middle" font-family="Arial,sans-serif" font-size="38" fill="#111827">packet packing</text>
<path d="M 280,735 L 280,795" fill="none" stroke="#374151" stroke-width="5"/>
<rect x="565" y="605" width="410" height="130" rx="14" fill="#e5edf4" stroke="#374151" stroke-width="4"/>
<text x="770.0" y="644.5" dominant-baseline="middle" text-anchor="middle" font-family="Arial,sans-serif" font-size="38" fill="#111827">Alerted flows</text>
<text x="770.0" y="695.5" dominant-baseline="middle" text-anchor="middle" font-family="Arial,sans-serif" font-size="38" fill="#111827">chronological packing</text>
<path d="M 770,735 L 770,795" fill="none" stroke="#374151" stroke-width="5"/>
<rect x="1055" y="605" width="410" height="130" rx="14" fill="#e5edf4" stroke="#374151" stroke-width="4"/>
<text x="1260.0" y="644.5" dominant-baseline="middle" text-anchor="middle" font-family="Arial,sans-serif" font-size="38" fill="#111827">Evidence bundles</text>
<text x="1260.0" y="695.5" dominant-baseline="middle" text-anchor="middle" font-family="Arial,sans-serif" font-size="38" fill="#111827">gain per added byte</text>
<path d="M 1260,735 L 1260,795" fill="none" stroke="#374151" stroke-width="5"/>
<rect x="1545" y="605" width="410" height="130" rx="14" fill="#e5edf4" stroke="#374151" stroke-width="4"/>
<text x="1750.0" y="644.5" dominant-baseline="middle" text-anchor="middle" font-family="Arial,sans-serif" font-size="38" fill="#111827">Flow prefixes</text>
<text x="1750.0" y="695.5" dominant-baseline="middle" text-anchor="middle" font-family="Arial,sans-serif" font-size="38" fill="#111827">whole packet cutoff</text>
<path d="M 1750,735 L 1750,795" fill="none" stroke="#374151" stroke-width="5"/>
<path d="M 280,795 L 1750,795" fill="none" stroke="#374151" stroke-width="5"/>
<path d="M 1060,795 L 1060,845" fill="none" stroke="#374151" stroke-width="5" marker-end="url(#arrow)"/>
<rect x="560" y="845" width="1000" height="110" rx="14" fill="#eef2f6" stroke="#374151" stroke-width="4"/>
<text x="1060.0" y="872.0" dominant-baseline="middle" text-anchor="middle" font-family="Arial,sans-serif" font-size="43" fill="#111827">Apply the same PCAP byte cap</text>
<text x="1060.0" y="928.0" dominant-baseline="middle" text-anchor="middle" font-family="Arial,sans-serif" font-size="43" fill="#111827">Keep whole original records only</text>
<path d="M 1060,955 L 1060,1010" fill="none" stroke="#374151" stroke-width="5" marker-end="url(#arrow)"/>
<rect x="560" y="1010" width="1000" height="110" rx="14" fill="#eef2f6" stroke="#374151" stroke-width="4"/>
<text x="1060.0" y="1037.0" dominant-baseline="middle" text-anchor="middle" font-family="Arial,sans-serif" font-size="43" fill="#111827">Write retained PCAP</text>
<text x="1060.0" y="1093.0" dominant-baseline="middle" text-anchor="middle" font-family="Arial,sans-serif" font-size="43" fill="#111827">Copy selected records in capture order</text>
<path d="M 1060,1120 L 1060,1175" fill="none" stroke="#374151" stroke-width="5" marker-end="url(#arrow)"/>
<rect x="560" y="1175" width="1000" height="110" rx="14" fill="#eef2f6" stroke="#374151" stroke-width="4"/>
<text x="1060.0" y="1202.5" dominant-baseline="middle" text-anchor="middle" font-family="Arial,sans-serif" font-size="42" fill="#111827">Reparse and evaluate eight criteria</text>
<text x="1060.0" y="1257.5" dominant-baseline="middle" text-anchor="middle" font-family="Arial,sans-serif" font-size="42" fill="#111827">Answers use retained packets only</text>
<path d="M 1060,1285 L 1060,1340" fill="none" stroke="#374151" stroke-width="5" marker-end="url(#arrow)"/>
<rect x="560" y="1340" width="1000" height="110" rx="14" fill="#eef2f6" stroke="#374151" stroke-width="4"/>
<text x="1060.0" y="1367.0" dominant-baseline="middle" text-anchor="middle" font-family="Arial,sans-serif" font-size="43" fill="#111827">Metrics plots and report</text>
<text x="1060.0" y="1423.0" dominant-baseline="middle" text-anchor="middle" font-family="Arial,sans-serif" font-size="43" fill="#111827">CSV and JSON results with hashes</text>
<rect x="1710" y="45" width="460" height="150" rx="14" fill="#f5f5f5" stroke="#374151" stroke-width="4"/>
<text x="1940.0" y="71.0" dominant-baseline="middle" text-anchor="middle" font-family="Arial,sans-serif" font-size="36" fill="#111827">Separate ground truth</text>
<text x="1940.0" y="120.0" dominant-baseline="middle" text-anchor="middle" font-family="Arial,sans-serif" font-size="36" fill="#111827">Reference answers</text>
<text x="1940.0" y="169.0" dominant-baseline="middle" text-anchor="middle" font-family="Arial,sans-serif" font-size="36" fill="#111827">Evaluator only</text>
<path d="M 1940,195 L 2090,195 L 2090,1230 L 1570,1230" fill="none" stroke="#374151" stroke-width="5" stroke-dasharray="13 11" marker-end="url(#arrow)"/>
<text x="1060" y="1505" dominant-baseline="middle" text-anchor="middle" font-family="Arial,sans-serif" font-size="36" fill="#374151">No truth labels or oracle packet IDs enter selection</text>
</svg>